<svg width="168" height="168" viewBox="0 0 168 168" fill="none" xmlns="http://www.w3.org/2000/svg">
<path d="M84.0834 167.333C50.4058 167.377 20.0275 147.103 7.14693 115.986C-5.73363 84.8685 1.42753 49.0548 25.2834 25.2834C46.2764 4.21447 76.9242 -4.03707 105.658 3.64355C134.391 11.3242 156.834 33.7671 164.515 62.5007C172.195 91.2342 163.944 121.882 142.875 142.875C127.33 158.552 106.16 167.359 84.0834 167.333ZM71.7334 111.267C87.0475 110.947 102.142 114.944 115.292 122.8C116.103 123.344 117.057 123.634 118.033 123.633C119.813 123.589 121.449 122.648 122.383 121.133C123.111 119.729 123.237 118.09 122.733 116.592C122.307 115.452 121.421 114.544 120.292 114.092C105.486 105.285 88.5059 100.813 71.2834 101.183C60.5978 101.265 49.9534 102.52 39.5417 104.925C36.8119 105.652 35.1521 108.415 35.7917 111.167C36.4362 113.387 38.4084 114.963 40.7167 115.1C41.1597 115.098 41.6002 115.034 42.025 114.908C51.7612 112.592 61.7258 111.37 71.7334 111.267ZM70.15 86.4667C88.8858 86.2462 107.342 91.0241 123.617 100.308C124.544 100.982 125.662 101.344 126.808 101.342C129.054 101.254 131.123 100.099 132.375 98.2334C133.354 96.8058 133.658 95.0213 133.208 93.35C132.904 91.901 131.994 90.6515 130.708 89.9167C112.306 79.2895 91.3912 73.7903 70.1417 73.9917C58.9397 73.9231 47.7881 75.4954 37.0417 78.6584C33.7397 79.7453 31.8957 83.2562 32.875 86.5917C33.6925 89.2871 36.2365 91.0827 39.05 90.95C39.6481 90.9559 40.2446 90.8859 40.825 90.7417C50.3232 87.8224 60.2137 86.3806 70.15 86.4667ZM71.725 60.7334C93.0914 60.117 114.258 64.9949 133.2 74.9C134.477 75.5978 135.912 75.9565 137.367 75.9417C139.951 75.9955 142.413 74.8472 144.033 72.8334C145.041 70.9902 145.303 68.8309 144.767 66.8C144.265 64.7739 142.951 63.0438 141.133 62.0167C119.773 50.6637 95.8403 45.0258 71.6584 45.65C58.2686 45.5122 44.9245 47.2342 32.0084 50.7667C28.3803 51.8887 26.1309 55.5094 26.7325 59.2591C27.334 63.0087 30.6031 65.7442 34.4 65.675C35.1393 65.6756 35.8747 65.569 36.5834 65.3584C48.0107 62.1184 59.8485 60.5576 71.725 60.725V60.7334Z" fill="#1DB954"/>
</svg>
