<svg width="28" height="28" viewBox="0 0 28 28" fill="none" xmlns="http://www.w3.org/2000/svg">
<path d="M20 12.9617C20.0011 11.9745 19.7549 11.0025 19.2835 10.1331C18.8121 9.26374 18.1303 8.52423 17.2996 7.9813C16.4688 7.43838 15.515 7.109 14.5241 7.02276C13.5332 6.93652 12.5363 7.09622 11.6229 7.48735C10.7096 7.87849 9.90858 8.48874 9.29195 9.26342C8.67532 10.0381 8.26245 10.9529 8.09042 11.9253C7.91839 12.8977 7.99261 13.8972 8.30645 14.834C8.62028 15.7709 9.16386 16.6156 9.88827 17.2922C10.2896 17.6875 10.6061 18.1594 10.8188 18.6794C11.0314 19.1994 11.1358 19.7567 11.1257 20.3178V21.2452C11.1257 21.4454 11.2058 21.6374 11.3484 21.779C11.491 21.9206 11.6844 22 11.8861 22H16.1138C16.2142 22.0008 16.3138 21.9819 16.4068 21.9444C16.4998 21.9068 16.5844 21.8514 16.6557 21.7812C16.727 21.711 16.7836 21.6275 16.8223 21.5355C16.8609 21.4435 16.8807 21.3449 16.8807 21.2452V20.1707C16.8794 19.6311 16.9891 19.0969 17.203 18.6009C17.4168 18.1048 17.7304 17.6574 18.1246 17.2858C18.7177 16.7301 19.1901 16.0599 19.5126 15.3162C19.8351 14.5726 20.001 13.7713 20 12.9617Z" fill="#FFC417" stroke="#E3E3E3" stroke-width="2" stroke-linecap="round" stroke-linejoin="round"/>
<path d="M11 25C11.7957 25.6403 12.8749 26 14 26C15.1251 26 16.2043 25.6403 17 25" stroke="#E3E3E3" stroke-width="2" stroke-linecap="round" stroke-linejoin="round"/>
<path d="M13.78 2V4" stroke="#E3E3E3" stroke-width="2" stroke-linecap="round" stroke-linejoin="round"/>
<path d="M6 5.21997L7.42 6.63997" stroke="#E3E3E3" stroke-width="2" stroke-linecap="round" stroke-linejoin="round"/>
<path d="M20.1401 6.63997L21.5601 5.21997" stroke="#E3E3E3" stroke-width="2" stroke-linecap="round" stroke-linejoin="round"/>
<path d="M3 12H5" stroke="#E3E3E3" stroke-width="2" stroke-linecap="round" stroke-linejoin="round"/>
<path d="M23 12H25" stroke="#E3E3E3" stroke-width="2" stroke-linecap="round" stroke-linejoin="round"/>
</svg>
