<svg width="50" height="50" viewBox="0 0 50 50" fill="none" xmlns="http://www.w3.org/2000/svg">
<path d="M25.0249 50C14.9216 50.0132 5.80812 43.9308 1.94396 34.5957C-1.92021 25.2605 0.228138 14.5164 7.38489 7.385C13.6828 1.06434 22.8771 -1.41112 31.4972 0.893065C40.1172 3.19725 46.8501 9.93014 49.1543 18.5502C51.4585 27.1702 48.9831 36.3646 42.6624 42.6625C37.999 47.3656 31.648 50.0077 25.0249 50ZM21.3199 33.18C25.9141 33.0841 30.4426 34.2832 34.3874 36.64C34.6307 36.8032 34.917 36.8902 35.2099 36.89C35.7437 36.8766 36.2346 36.5945 36.5149 36.14C36.7331 35.7188 36.771 35.2271 36.6199 34.7775C36.4921 34.4356 36.2262 34.1633 35.8874 34.0275C31.4458 31.3855 26.3516 30.0438 21.1849 30.155C17.9792 30.1795 14.7859 30.556 11.6624 31.2775C10.8435 31.4957 10.3455 32.3245 10.5374 33.15C10.7307 33.8162 11.3224 34.2888 12.0149 34.33C12.1478 34.3295 12.2799 34.3102 12.4074 34.2725C15.3282 33.5775 18.3176 33.211 21.3199 33.18ZM20.8449 25.74C26.4656 25.6738 32.0024 27.1072 36.8849 29.8925C37.1631 30.0947 37.4984 30.2033 37.8424 30.2025C38.5161 30.1763 39.1367 29.8298 39.5124 29.27C39.806 28.8417 39.8973 28.3064 39.7624 27.805C39.671 27.3703 39.398 26.9955 39.0124 26.775C33.4917 23.5868 27.2172 21.9371 20.8424 21.9975C17.4818 21.9769 14.1363 22.4486 10.9124 23.3975C9.92178 23.7236 9.3686 24.7768 9.66239 25.7775C9.90762 26.5861 10.6708 27.1248 11.5149 27.085C11.6943 27.0868 11.8732 27.0658 12.0474 27.0225C14.8968 26.1467 17.864 25.7142 20.8449 25.74ZM21.3174 18.02C27.7273 17.8351 34.0774 19.2985 39.7599 22.27C40.143 22.4793 40.5734 22.5869 41.0099 22.5825C41.7851 22.5986 42.5239 22.2542 43.0099 21.65C43.3121 21.097 43.3909 20.4493 43.2299 19.84C43.0793 19.2322 42.6851 18.7131 42.1399 18.405C35.7318 14.9991 28.552 13.3077 21.2974 13.495C17.2805 13.4537 13.2772 13.9703 9.40239 15.03C8.31397 15.3666 7.63916 16.4528 7.81962 17.5777C8.00008 18.7026 8.9808 19.5232 10.1199 19.5025C10.3417 19.5027 10.5623 19.4707 10.7749 19.4075C14.2031 18.4355 17.7544 17.9673 21.3174 18.0175V18.02Z" fill="#8C8C8C" fill-opacity="0.75"/>
</svg>
