<svg width="39" height="47" viewBox="0 0 39 47" fill="none" xmlns="http://www.w3.org/2000/svg">
<path fill-rule="evenodd" clip-rule="evenodd" d="M4 25.75C4 24.6454 4.89543 23.75 6 23.75H33.5C34.6046 23.75 35.5 24.6454 35.5 25.75V41C35.5 42.1046 34.6046 43 33.5 43H6C4.89543 43 4 42.1046 4 41V25.75Z" stroke="#E3E3E3" stroke-width="3.5" stroke-linecap="round" stroke-linejoin="round"/>
<path d="M11 23.75V16.75C11 11.9175 14.9175 8 19.75 8C24.5825 8 28.5 11.9175 28.5 16.75V23.75" stroke="#E3E3E3" stroke-width="3.5" stroke-linecap="round" stroke-linejoin="round"/>
<rect x="11" y="28" width="18" height="18" fill="#1E212C" stroke="#1E212C" stroke-width="2"/>
<path d="M20.75 44.9999H18.5V42.7499H20.75V44.9999ZM20.75 41.2499H18.5V41.2447C18.5 40.0072 18.5 38.9385 19.004 38.19C19.3961 37.693 19.884 37.2798 20.4387 36.975C20.6892 36.8145 20.9255 36.6622 21.1242 36.504C21.9953 35.8298 22.3869 34.7054 22.1232 33.636C21.706 32.6386 20.6444 32.0727 19.5838 32.2822C18.5232 32.4917 17.7566 33.4189 17.75 34.5H15.5C15.5 32.0147 17.5147 30 20 30C21.7289 29.9948 23.3101 30.9742 24.0755 32.5245C24.763 34.1041 24.4912 35.9373 23.375 37.2495C23.0356 37.6256 22.6547 37.962 22.2395 38.2522C21.8762 38.5028 21.5447 38.7967 21.2525 39.1275C20.8395 39.7534 20.6614 40.5053 20.75 41.2499Z" fill="#E3E3E3"/>
</svg>
